# xmcd
#
# Track frame offsets:
# 150
# 16339
# 32219
# 47968
# 60811
# 79816
# 98731
# 114423
# 132801
# 151055
# 166637
# 181855
# 192092
# 212225
# 230620
# 246670
# 260109
# 277509
# 291081
# 307701
#
# Disc length: 4269 seconds
#
#
# Revision: 0
# Processed by: cddbd v1.5.2PL0 Copyright (c) Steve Scherf et al.
# Submitted via: FreeRIP 2.951 
#
DISCID=0310ab14
DTITLE=Vários - Sertanejão vol 2
DYEAR=2004
DGENRE=Sertanejo
TTITLE0=Quando o amor é pra valer
TTITLE1=Perdi você
TTITLE2=Agora vai - Passou da conta
TTITLE3=De bem com a vida
TTITLE4=Paixão proibida
TTITLE5=I love you baby
TTITLE6=Nosso amor é ouro
TTITLE7=Vem me ajudar
TTITLE8=Mon amour meu bem ma famme
TTITLE9=Porta retrato
TTITLE10=Proxima vítima
TTITLE11=Pauco caiu
TTITLE12=Rasgando a madrugada
TTITLE13=Dúvidas
TTITLE14=Eu sem você
TTITLE15=Doce paixão
TTITLE16=Vou beber veneno
TTITLE17=Dando em cima de mim
TTITLE18=100 anos
TTITLE19=Só dou carona pra quem deu pra mim
EXTD=
EXTT0=
EXTT1=
EXTT2=
EXTT3=
EXTT4=
EXTT5=
EXTT6=
EXTT7=
EXTT8=
EXTT9=
EXTT10=
EXTT11=
EXTT12=
EXTT13=
EXTT14=
EXTT15=
EXTT16=
EXTT17=
EXTT18=
EXTT19=
PLAYORDER=
